M48
;Layer_Color=6321
;FILE_FORMAT=2:5
INCH,LZ
;TYPE=PLATED
T1F00S00C0.02500
T2F00S00C0.02800
T3F00S00C0.03000
T4F00S00C0.03543
T5F00S00C0.03937
T6F00S00C0.04000
T7F00S00C0.05000
T8F00S00C0.05906
T9F00S00C0.07000
T10F00S00C0.07087
T11F00S00C0.13780
;TYPE=NON_PLATED
T12F00S00C0.05906
%
T01
X0335Y029
X034
X0345
X0245Y027
X0234921
X0225079
X0215
T02
X027Y03065
Y0333386
X0424Y04086
X06198Y04467
T03
X0480001Y0309999
X0430001
X0400001Y0270001
X036063Y027
X033Y020937
X0330001Y0169999
X0300001
X03Y020937
X0280001Y0370001
X024063Y037
X039Y035937
X0390001Y0319999
X043Y034937
X048
T04
X0470236Y025
X046
X0449764
X0290236
X028
X0269764
X03Y0339764
Y035
Y0360236
X0335Y036
Y037
Y038
Y039
Y04
X0365
Y039
Y038
Y037
Y036
Y035
Y034
X0335
Y035
T05
X047Y019
Y022937
X0469016Y029
X046
X0450984
X041Y026937
Y023
X031Y0260984
Y027
Y0279016
X027Y019937
Y016
X021Y019063
Y023
X0149528
Y0239843
Y0220157
X023Y033
Y036937
X0614803Y0368661
Y0358661
T06
X0614803Y0128661
X0624803
Y0138661
Y0148661
X0614803
Y0138661
X0814803
X0824803
Y0148661
X0814803
Y0128661
X0824803
Y0158661
Y0168661
Y0178661
Y0188661
Y0198661
Y0208661
Y0218661
Y0228661
Y0238661
Y0248661
Y0258661
Y0268661
Y0278661
Y0288661
Y0298661
Y0308661
X0814803
Y0298661
Y0288661
Y0278661
Y0268661
Y0258661
Y0248661
Y0238661
Y0228661
Y0218661
Y0208661
Y0198661
Y0188661
Y0178661
Y0168661
Y0158661
X0624803
Y0168661
Y0178661
Y0188661
Y0198661
Y0208661
Y0218661
Y0228661
Y0238661
Y0248661
Y0258661
Y0268661
Y0278661
Y0288661
Y0298661
Y0308661
X0614803
Y0298661
Y0288661
Y0278661
Y0268661
Y0258661
Y0248661
Y0238661
Y0228661
Y0218661
Y0208661
Y0198661
Y0188661
Y0178661
Y0168661
Y0158661
Y0318661
X0624803
Y0328661
Y0338661
Y0348661
Y0358661
Y0368661
X0614803Y0348661
Y0338661
Y0328661
X0814803
X0824803
Y0338661
Y0348661
Y0358661
Y0368661
X0814803
Y0358661
Y0348661
Y0338661
Y0318661
X0824803
T07
X018Y019
Y02
Y021
T08
X016Y0159843
Y0339843
Y0439843
T09
X018125Y013
X021125
X028875
X031875
X034125Y046
X037125
X044875
X047875
T10
X012Y0210315
Y0249685
T11
X012063Y013622
Y016378
Y031622
Y034378
Y041622
Y044378
T12
X016Y0139843
Y0319843
Y0419843
M30
